<svg class="dn" height="0" version="1.1" width="0" xmlns="http://www.w3.org/2000/svg">
  <defs>
    <g id="jumbo-logo">
      <path class="st1" d="M268.9,70.1c3.4-2.1,7.3-3.3,11.6-3.3c12.2,0,22.1,9.9,22.1,22.1c0,4.2-1.1,8-3.1,11.4l0.1,0.1         C317,124,327,153.2,327,184.7c0,78.6-63.7,142.3-142.3,142.3c-78.6,0-142.3-63.7-142.3-142.3c0-78.6,63.7-142.3,142.3-142.3         C216.2,42.4,245.4,52.8,268.9,70.1"></path>
      <path class="st2" d="M288.1,109.6c-2.3,0.8-5.1,1.4-7.7,1.4c-12.1,0-22-9.8-22-22c0-2.7,0.5-5.3,1.4-7.8         c-21.1-15.3-47.1-24.4-75.2-24.4c-70.6,0-127.9,57.3-127.9,127.9c0,70.6,57.2,127.8,127.9,127.8c70.6,0,127.9-57.2,127.9-127.8         C312.5,156.6,303.4,130.7,288.1,109.6"></path>
      <path class="st3" d="M268.7,88.8c0-6.7,5.4-12.1,12.1-12.1c6.7,0,12.1,5.4,12.1,12.1c0,6.7-5.4,12.1-12.1,12.1         C274.1,100.9,268.7,95.5,268.7,88.8"></path>
      <path class="st1" d="M122.4,258.4c0.8-0.8,1.7-1.4,2.6-1.7c1-0.4,2-0.6,3-0.6c1,0,2,0.2,3,0.6c1,0.4,1.9,1,2.7,1.7l1.1,1.1         l-2.2,2.2l-1.1-1.1c-0.5-0.5-1-0.8-1.6-1.1c-0.6-0.2-1.2-0.4-1.8-0.4c-0.6,0-1.2,0.1-1.8,0.4c-0.6,0.2-1.1,0.6-1.6,1.1         c-0.5,0.4-0.8,1-1.1,1.6c-0.2,0.6-0.4,1.2-0.4,1.8c0,0.6,0.1,1.2,0.4,1.8c0.2,0.6,0.6,1.1,1.1,1.6c0.9,1,2.1,1.4,3.4,1.4         c0.6,0,1.3-0.1,1.8-0.4c0.6-0.2,1.1-0.6,1.6-1.1l1.1-1.1l2.2,2.2l-1.1,1.1c-0.8,0.8-1.7,1.4-2.7,1.8c-1,0.4-2,0.6-3,0.6         c-1,0-2-0.2-3-0.6c-1-0.4-1.8-1-2.6-1.8c-0.8-0.8-1.4-1.6-1.7-2.6c-0.4-1-0.6-2-0.6-3c0-1,0.2-2,0.6-3         C121.1,260.1,121.7,259.2,122.4,258.4"></path>
      <path class="st1" d="M148.4,266.4l2.2,2.2l-1.1,1.1c-0.8,0.8-1.6,1.3-2.6,1.7c-1,0.4-2,0.6-3,0.6c-1.1,0-2.1-0.2-3.1-0.6         c-1-0.4-1.8-1-2.6-1.7c-0.8-0.8-1.4-1.6-1.7-2.6c-0.4-1-0.6-2-0.6-3c0-1,0.2-2,0.6-3c0.4-1,1-1.8,1.7-2.6         c0.8-0.8,1.7-1.4,2.6-1.7c1-0.4,2-0.6,3-0.6c1,0,2,0.2,3,0.6c1,0.4,1.9,1,2.7,1.7l1.1,1.1l-8.8,8.8c0.9,0.4,1.8,0.6,2.8,0.5         c1-0.2,1.9-0.6,2.7-1.4L148.4,266.4z M140.6,260.7c-0.9,1-1.4,2.1-1.4,3.4c0,0.7,0.2,1.4,0.5,2.1c0.3-0.3,0.7-0.7,1.3-1.3         c0.6-0.6,1.2-1.2,1.8-1.8c0.7-0.7,1.3-1.3,1.9-1.9c0.6-0.6,1.1-1,1.4-1.4c-0.9-0.4-1.9-0.6-2.9-0.5         C142.2,259.5,141.3,259.9,140.6,260.7"></path>
      <path class="st1" d="M151.7,264.1c0-1.1,0.2-2.1,0.6-3.1c0.4-1,1-1.8,1.7-2.5c0.7-0.7,1.6-1.3,2.6-1.7c1-0.4,2-0.6,3.1-0.6         c1.1,0,2.1,0.2,3.1,0.6c1,0.4,1.8,1,2.5,1.7c0.7,0.7,1.3,1.5,1.7,2.5c0.4,0.9,0.6,2,0.6,3.1v8h-3.2v-8c0-0.7-0.1-1.3-0.4-1.8         c-0.2-0.6-0.6-1.1-1-1.5c-0.4-0.5-0.9-0.8-1.5-1c-0.6-0.3-1.2-0.4-1.9-0.4c-0.7,0-1.3,0.1-1.9,0.4c-0.6,0.2-1.1,0.6-1.5,1         c-0.4,0.4-0.8,0.9-1,1.5c-0.2,0.6-0.4,1.2-0.4,1.8v8h-3.2V264.1z"></path>
      <path class="st1" d="M170.9,258.4c0.8-0.8,1.7-1.4,2.6-1.7c1-0.4,2-0.6,3-0.6c1,0,2,0.2,3,0.6c1,0.4,1.9,1,2.6,1.7l1.1,1.1         l-2.2,2.2l-1.1-1.1c-0.5-0.5-1-0.8-1.6-1.1c-0.6-0.2-1.2-0.4-1.8-0.4c-0.6,0-1.2,0.1-1.8,0.4c-0.6,0.2-1.1,0.6-1.6,1.1         c-0.5,0.4-0.8,1-1.1,1.6c-0.2,0.6-0.4,1.2-0.4,1.8c0,0.6,0.1,1.2,0.4,1.8c0.2,0.6,0.6,1.1,1.1,1.6c0.9,1,2.1,1.4,3.4,1.4         c0.6,0,1.2-0.1,1.8-0.4c0.6-0.2,1.1-0.6,1.6-1.1l1.1-1.1l2.2,2.2l-1.1,1.1c-0.8,0.8-1.7,1.4-2.6,1.8c-1,0.4-2,0.6-3,0.6         c-1,0-2-0.2-3-0.6c-1-0.4-1.8-1-2.6-1.8c-0.8-0.8-1.4-1.6-1.7-2.6c-0.4-1-0.6-2-0.6-3c0-1,0.2-2,0.6-3         C169.6,260.1,170.2,259.2,170.9,258.4"></path>
      <path class="st1" d="M184.5,264.1c0-1.1,0.2-2.1,0.6-3.1c0.4-1,1-1.8,1.7-2.5c0.7-0.7,1.6-1.3,2.6-1.7c1-0.4,2-0.6,3.1-0.6         c1.1,0,2.1,0.2,3.1,0.6c1,0.4,1.8,1,2.6,1.7c0.7,0.7,1.3,1.6,1.7,2.5c0.4,0.9,0.6,2,0.6,3.1c0,1.1-0.2,2.1-0.6,3.1         c-0.4,1-1,1.8-1.7,2.5c-0.7,0.7-1.6,1.3-2.6,1.7c-0.9,0.4-2,0.6-3.1,0.6c-1.1,0-2.1-0.2-3.1-0.6c-1-0.4-1.8-1-2.6-1.7         c-0.7-0.7-1.3-1.6-1.7-2.5C184.7,266.2,184.5,265.2,184.5,264.1 M187.6,264.1c0,0.7,0.1,1.3,0.4,1.9c0.3,0.6,0.6,1.1,1,1.6         c0.4,0.4,1,0.8,1.6,1c0.6,0.2,1.2,0.4,1.9,0.4c0.7,0,1.3-0.1,1.9-0.4c0.6-0.3,1.1-0.6,1.5-1c0.5-0.4,0.8-1,1-1.6         c0.3-0.6,0.4-1.2,0.4-1.9c0-0.7-0.1-1.3-0.4-1.8c-0.2-0.6-0.6-1.1-1-1.5c-0.4-0.5-0.9-0.8-1.5-1c-0.6-0.3-1.2-0.4-1.9-0.4         c-0.7,0-1.3,0.1-1.9,0.4c-0.6,0.2-1.1,0.6-1.6,1c-0.4,0.4-0.8,0.9-1,1.5C187.7,262.8,187.6,263.4,187.6,264.1"></path>
      <path class="st1" d="M215.7,256.1v3.2h-9.6c-0.5,0-0.8,0.2-1.1,0.5c-0.3,0.3-0.5,0.7-0.5,1.1c0,0.4,0.2,0.8,0.5,1.2         c0.3,0.3,0.7,0.5,1.1,0.5h6.4c0.7,0,1.3,0.1,1.8,0.4c0.6,0.2,1.1,0.6,1.5,1c0.4,0.4,0.8,0.9,1,1.5c0.3,0.6,0.4,1.2,0.4,1.8         c0,0.7-0.1,1.3-0.4,1.9c-0.2,0.6-0.6,1.1-1,1.5c-0.4,0.4-0.9,0.8-1.5,1c-0.6,0.2-1.2,0.4-1.8,0.4h-9.6v-3.2h9.6         c0.5,0,0.9-0.1,1.2-0.5c0.3-0.3,0.5-0.7,0.5-1.2c0-0.4-0.2-0.8-0.5-1.1c-0.3-0.3-0.7-0.5-1.2-0.5h-6.4c-0.7,0-1.3-0.1-1.9-0.4         c-0.6-0.2-1.1-0.6-1.5-1c-0.4-0.5-0.8-0.9-1-1.5c-0.2-0.6-0.4-1.2-0.4-1.9c0-0.7,0.1-1.3,0.4-1.8c0.3-0.6,0.6-1.1,1-1.5         c0.4-0.4,0.9-0.8,1.5-1c0.6-0.3,1.2-0.4,1.9-0.4H215.7z"></path>
      <path class="st1" d="M234.2,256.1v7.9c0,1.1-0.2,2.1-0.6,3.1c-0.4,1-1,1.8-1.7,2.5c-0.7,0.7-1.6,1.3-2.6,1.7         c-0.9,0.4-2,0.6-3.1,0.6c-1.1,0-2.1-0.2-3.1-0.6c-1-0.4-1.8-1-2.5-1.7c-0.7-0.7-1.3-1.6-1.7-2.5c-0.4-1-0.6-2-0.6-3.1v-7.9h3.2         v7.9c0,0.7,0.1,1.3,0.4,1.9c0.3,0.6,0.6,1.1,1,1.6c0.4,0.4,1,0.8,1.5,1c0.6,0.2,1.2,0.4,1.9,0.4c0.7,0,1.3-0.1,1.9-0.4         c0.6-0.3,1.1-0.6,1.5-1c0.5-0.4,0.8-1,1-1.6c0.3-0.6,0.4-1.2,0.4-1.9v-7.9H234.2z"></path>
      <path class="st1" d="M251,249.7V264c0,1.1-0.2,2.1-0.6,3.1c-0.4,1-1,1.8-1.7,2.5c-0.7,0.7-1.5,1.3-2.5,1.7c-1,0.4-2,0.6-3.1,0.6         c-1.1,0-2.1-0.2-3.1-0.6c-1-0.4-1.8-1-2.5-1.7c-0.7-0.7-1.3-1.6-1.7-2.5c-0.4-1-0.6-2-0.6-3.1c0-1.1,0.2-2.1,0.6-3.1         c0.4-1,1-1.8,1.7-2.5c0.7-0.7,1.6-1.3,2.5-1.7c1-0.4,2-0.6,3.1-0.6h4.8v-6.4H251z M243,268.8c0.7,0,1.3-0.1,1.8-0.4         c0.6-0.3,1.1-0.6,1.5-1c0.5-0.4,0.8-1,1-1.6c0.3-0.6,0.4-1.2,0.4-1.9v-4.8H243c-0.7,0-1.3,0.1-1.9,0.4c-0.6,0.2-1.1,0.6-1.6,1         c-0.4,0.4-0.8,0.9-1,1.5c-0.2,0.6-0.4,1.2-0.4,1.8c0,0.7,0.1,1.3,0.4,1.9c0.3,0.6,0.6,1.1,1,1.6c0.4,0.4,1,0.8,1.6,1         C241.7,268.7,242.4,268.8,243,268.8"></path>
    </g>
  </defs>
</svg>